<?xml version="1.0" encoding="UTF-8" standalone="no"?>
<!-- Created with Inkscape (http://www.inkscape.org/) -->

<svg
   version="1.1"
   id="svg43705"
   width="800"
   height="800"
   viewBox="0 0 800 800"
   sodipodi:docname="jogging-running-silhouette-vector.svg"
   inkscape:version="1.2 (dc2aedaf03, 2022-05-15)"
   xmlns:inkscape="http://www.inkscape.org/namespaces/inkscape"
   xmlns:sodipodi="http://sodipodi.sourceforge.net/DTD/sodipodi-0.dtd"
   xmlns="http://www.w3.org/2000/svg"
   xmlns:svg="http://www.w3.org/2000/svg">
  <defs
     id="defs43709">
    <clipPath
       clipPathUnits="userSpaceOnUse"
       id="clipPath43721">
      <path
         d="M 0,600 H 600 V 0 H 0 Z"
         id="path43719" />
    </clipPath>
  </defs>
  <sodipodi:namedview
     id="namedview43707"
     pagecolor="#ffffff"
     bordercolor="#000000"
     borderopacity="0.25"
     inkscape:showpageshadow="2"
     inkscape:pageopacity="0.0"
     inkscape:pagecheckerboard="0"
     inkscape:deskcolor="#d1d1d1"
     showgrid="false"
     inkscape:zoom="1.04625"
     inkscape:cx="400"
     inkscape:cy="400.4779"
     inkscape:window-width="1920"
     inkscape:window-height="1017"
     inkscape:window-x="-8"
     inkscape:window-y="-8"
     inkscape:window-maximized="1"
     inkscape:current-layer="g43713">
    <inkscape:page
       x="0"
       y="0"
       id="page43711"
       width="800"
       height="800" />
  </sodipodi:namedview>
  <g
     id="g43713"
     inkscape:groupmode="layer"
     inkscape:label="Page 1"
     transform="matrix(1.3333333,0,0,-1.3333333,0,800)">
    <g
       id="g43715">
      <g
         id="g43717"
         clip-path="url(#clipPath43721)">
        <g
           id="g43723"
           transform="translate(425.6836,4.6377)">
          <path
             d="M 0,0 C 0.568,-0.068 1.074,-0.154 1.536,-0.229 L 0.22,0.015 Z"
             style="fill:#0f311f;fill-opacity:1;fill-rule:nonzero;stroke:none"
             id="path43725" />
        </g>
        <g
           id="g43727"
           transform="translate(427.2197,4.4092)">
          <path
             d="m 0,0 c 1.692,-0.271 2.796,-0.365 4.261,1.349 5.832,-2.708 12.193,1.307 14.501,1.455 2.898,2.376 7.086,4.052 7.927,8.104 0.125,0.61 0.179,1.227 0.193,1.846 L -1.316,0.243 Z"
             style="fill:#0c2416;fill-opacity:1;fill-rule:nonzero;stroke:none"
             id="path43729" />
        </g>
        <g
           id="g43731"
           transform="translate(452.2813,25.582)">
          <path
             d="m 0,0 c -0.958,1.363 -2.53,2.198 -4.15,2.586 -3.254,0.773 -6.631,-0.326 -9.91,-0.388 -2.179,-0.036 -4.513,0.461 -6.029,2.027 -0.497,0.516 -0.89,1.129 -1.412,1.621 -0.958,0.902 -2.414,0.442 -3.274,1.424 -0.306,0.353 -0.595,0.666 -0.869,0.945 L -26.378,-20.93 1.82,-8.419 C 1.852,-6.949 1.622,-5.466 1.363,-4.015 1.105,-2.615 0.811,-1.166 0,0"
             style="fill:#114328;fill-opacity:1;fill-rule:nonzero;stroke:none"
             id="path43733" />
        </g>
        <g
           id="g43735"
           transform="translate(417.248,5.5303)">
          <path
             d="m 0,0 c 0.078,0.048 0.159,0.092 0.238,0.138 l -1.59,0.19 C -0.915,0.171 -0.471,0.035 0,0"
             style="fill:#12502f;fill-opacity:1;fill-rule:nonzero;stroke:none"
             id="path43737" />
        </g>
        <g
           id="g43739"
           transform="translate(420.8535,5.2607)">
          <path
             d="m 0,0 c 0.399,-0.208 0.799,-0.416 1.209,-0.621 1.463,0.174 2.636,0.115 3.621,-0.002 l 0.22,0.015 z"
             style="fill:#12502f;fill-opacity:1;fill-rule:nonzero;stroke:none"
             id="path43741" />
        </g>
        <g
           id="g43743"
           transform="translate(378.0244,292.8613)">
          <path
             d="M 0,0 C 0.146,0.389 0.284,0.733 0.401,1.067 L -0.433,0.652 Z"
             style="fill:#72c32d;fill-opacity:1;fill-rule:nonzero;stroke:none"
             id="path43745" />
        </g>
        <g
           id="g43747"
           transform="translate(415.5166,436.0259)">
          <path
             d="m 0,0 c -0.258,1.142 -0.602,2.272 -0.675,3.445 -0.767,1.092 -0.81,2.431 -0.885,3.702 -0.196,0.202 -0.588,0.608 -0.779,0.803 0.006,2.537 -1.934,4.311 -3.641,5.901 -0.184,0.952 -0.418,1.898 -0.589,2.855 -1.792,1.793 -2.186,2.886 -5.723,1.216 -0.184,0.08 -0.552,0.233 -0.736,0.32 -0.025,2.221 -0.676,4.555 -2.862,4.174 -0.859,-1.075 -1.761,-2.173 -2.112,-3.536 -1.129,-1.099 -2.173,-2.284 -3.039,-3.598 -0.003,-0.051 -0.008,-0.114 -0.014,-0.182 L -0.137,-3.134 C -0.161,-2.087 0.097,-1.042 0,0"
             style="fill:#bb3125;fill-opacity:1;fill-rule:nonzero;stroke:none"
             id="path43749" />
        </g>
        <g
           id="g43751"
           transform="translate(384.4502,459.8525)">
          <path
             d="m 0,0 c 0.159,8.009 0.06,19.6 -1.436,27.409 -2.254,4.053 -3.255,5.047 -2.763,6.951 -0.251,0.234 -0.522,0.447 -0.795,0.657 l -27.028,-7.105 z"
             style="fill:#bb3125;fill-opacity:1;fill-rule:nonzero;stroke:none"
             id="path43753" />
        </g>
        <g
           id="g43755"
           transform="translate(379.4561,494.8691)">
          <path
             d="m 0,0 c -0.543,0.417 -1.098,0.819 -1.538,1.338 3.456,11.169 -1.426,12.999 -4.95,16.448 0.221,0.835 0.516,1.646 0.922,2.407 0.319,1.885 1.375,3.727 2.726,5.059 0.651,0.644 1.473,0.884 1.473,1.817 0.006,0.798 -0.393,1.72 -1.001,2.247 0.104,0.621 0.276,1.229 0.521,1.805 3.955,1.903 1.524,3.199 2.353,7.294 0.693,0.823 1.793,0.7 2.732,0.959 0.89,0.245 1.645,0.834 2.075,1.657 0.528,0.983 0.565,2.186 0.247,3.254 -0.308,1.02 -0.964,1.652 -1.499,2.524 -0.418,0.693 -0.565,1.626 -0.565,2.437 -0.479,0.909 -0.32,1.946 -0.295,2.923 0.633,0.048 1.265,0.086 1.909,0.122 -0.166,0.54 -0.312,1.081 -0.491,1.608 0.639,1.357 1.419,2.666 2.67,3.556 -0.065,0.81 0.111,1.719 -0.49,2.376 0.596,3.684 1.277,7.355 0.737,11.094 -0.062,0.433 -0.149,0.863 -0.247,1.289 L -27.027,-7.104 Z"
             style="fill:#bc1f26;fill-opacity:1;fill-rule:nonzero;stroke:none"
             id="path43757" />
        </g>
        <g
           id="g43759"
           transform="translate(357.9961,101.6621)">
          <path
             d="m 0,0 c 0.308,-0.869 0.618,-1.736 0.937,-2.6 2.709,-7.331 5.908,-14.427 8.35,-21.864 0.769,-2.339 1.793,-4.795 2.217,-7.231 0.331,-0.682 1.074,-3.291 1.879,-6.244 h -0.301 c 0.503,-1.352 0.921,-2.512 1.234,-3.42 0.184,-0.67 0.362,-1.332 0.534,-1.958 -0.774,-0.639 -0.847,-1.677 -1.129,-2.573 0.294,-0.921 0.675,-1.824 1.166,-2.659 -0.062,-0.221 -0.185,-0.639 -0.245,-0.859 -0.596,-0.437 -1.162,-0.915 -1.703,-1.419 -0.274,-0.59 -0.533,-1.186 -0.957,-1.689 -4.107,-12.23 -4.843,-11.726 -4.831,-15.496 -0.344,-0.282 -0.694,-0.552 -1.044,-0.799 -0.24,-0.723 -0.442,-1.442 -0.638,-2.172 0.165,-0.516 0.331,-1.026 0.509,-1.541 -0.067,-0.215 -0.185,-0.645 -0.25,-0.866 -0.407,-0.368 -0.812,-0.737 -1.206,-1.098 -0.626,-1.935 -1.583,-4.146 -0.454,-6.079 0.959,-1.412 1.855,-3.187 3.672,-3.585 0.516,0.195 1.044,0.374 1.571,0.551 0.234,-0.055 0.707,-0.177 0.934,-0.239 0.381,-0.73 0.762,-1.462 1.153,-2.198 6.668,-1.793 3.538,-1.964 16.812,-3.665 6.281,-1.186 8.516,1.166 10.585,1.793 0.215,-0.025 0.663,-0.08 0.878,-0.111 2.609,0.498 4.905,-1.086 7.158,-2.13 0.387,-0.689 0.762,-1.376 1.148,-2.07 0,0 7.485,-2.855 7.577,-2.927 0.83,-0.025 1.576,-0.376 2.344,-0.656 l 1.59,-0.19 c 0.785,0.433 1.643,0.712 2.513,0.912 0.103,-0.275 0.301,-0.815 0.398,-1.08 0.152,-0.08 0.304,-0.159 0.456,-0.239 l 5.05,-0.609 z"
             style="fill:#11653a;fill-opacity:1;fill-rule:nonzero;stroke:none"
             id="path43761" />
        </g>
        <g
           id="g43763"
           transform="translate(418.3896,43.252)">
          <path
             d="M 0,0 C -0.491,0.216 -1.079,0.694 -1.369,1.229 H -0.46 C -0.141,0.872 0.062,0.406 0,0 M 8.248,-9.455 C 5.592,-6.744 4.43,-7.209 2.973,-5.316 2.727,-4.665 2.371,-4.064 1.978,-3.499 1.947,-3.277 1.897,-2.836 1.873,-2.615 1.585,-2.173 1.315,-1.737 1.044,-1.294 1.37,-1.355 2.026,-1.479 2.352,-1.54 2.512,-0.89 2.684,-0.238 2.861,0.412 2.592,0.67 2.346,0.94 2.1,1.217 3.407,1.217 4.716,1.211 6.023,1.204 6.029,1.646 6.041,2.075 6.055,2.505 4.371,7.061 3.045,7.54 -1.19,9.283 c 0,0.117 0,0.234 -0.006,0.351 0.276,1.356 0.238,2.757 -0.511,3.984 -0.81,0.345 -1.682,0.54 -2.518,0.798 -0.735,-0.423 -1.534,-1.049 -2.037,-1.804 -0.54,-0.382 -1.105,-0.714 -1.664,-1.056 -1.117,1.209 -2.622,1.866 -4.205,2.178 -0.332,-0.116 -0.651,-0.257 -0.958,-0.417 -0.038,0.007 -0.073,0.007 -0.11,0.013 -0.689,0.454 -1.524,0.362 -2.291,0.375 -0.105,-0.062 -0.265,-0.159 -0.423,-0.252 -1.217,1.865 -2.482,4.291 -3.709,7.018 h -0.233 c -4.347,10.59 -6.865,22.163 -7.613,33.534 -0.534,8.156 -1.058,16.297 -1.673,24.437 l -36.746,-2.529 c 0.659,-2.553 1.49,-5.085 2.232,-7.554 1.005,-3.341 2.095,-6.66 3.262,-9.949 L 7.514,-38.6 Z"
             style="fill:#107440;fill-opacity:1;fill-rule:nonzero;stroke:none"
             id="path43765" />
        </g>
        <g
           id="g43767"
           transform="translate(378.4258,293.9287)">
          <path
             d="m 0,0 c 0.177,0.505 0.305,0.985 0.339,1.561 0.023,0.397 0.046,0.783 0.066,1.16 l -1.239,-3.136 z"
             style="fill:#9ab622;fill-opacity:1;fill-rule:nonzero;stroke:none"
             id="path43769" />
        </g>
        <g
           id="g43771"
           transform="translate(386.7451,567.083)">
          <path
             d="m 0,0 c -0.213,0.926 -0.502,1.833 -0.876,2.708 -0.302,0.7 -0.645,1.375 -1.026,2.025 -0.234,0.406 -1.302,1.536 -1.289,1.948 0.036,1.234 -0.228,2.511 -0.013,3.733 0.173,0.938 0.159,1.509 -0.122,2.474 -2.536,8.521 -11.543,12.58 -19.426,14.784 -6.934,1.936 -15.068,2.53 -21.991,-0.036 l 10.427,-106.954 z"
             style="fill:#c41f26;fill-opacity:1;fill-rule:nonzero;stroke:none"
             id="path43773" />
        </g>
        <g
           id="g43775"
           transform="translate(364.4473,383.4336)">
          <path
             d="M 0,0 C 0.098,0.455 0.185,0.902 0.282,1.351 1.527,0.928 2.726,0.128 4.101,0.276 c 2.542,0.159 4.506,1.873 6.68,2.972 0.712,-8.092 4.911,-11.352 -1.468,-21.035 -0.828,-0.356 -7.362,-2.216 -9.35,-2.486 0.013,4.26 -0.59,9.94 -0.86,10.997 1.29,2.461 1.229,5.304 2.229,7.857 C 0.896,-0.94 0.448,-0.466 0,0 M 15.472,6.354 C 14.035,3.579 13.679,0.473 13.2,-2.561 c -0.958,2.15 -0.774,4.611 -1.332,6.883 1.148,0.756 2.289,1.566 3.604,2.032 M 1.522,-22.858 c -0.276,-0.024 -0.835,-0.061 -1.118,-0.081 0,0.327 -0.005,0.965 -0.011,1.285 2.523,0.521 4.923,2.234 7.557,1.774 0,0 -6.403,-2.966 -6.428,-2.978 m 11.623,-67.062 1.239,3.136 c 1.258,23.307 -4.43,9.29 -1.675,37.016 -3.954,21.305 -10.204,10.266 -14.067,14.741 0.904,3.341 1.787,6.735 1.836,10.204 0.522,0.602 1.339,0.792 2.033,1.13 15.096,6.269 10.904,16.289 11.856,21.219 0.264,3.248 1.676,6.25 2.007,9.486 11.341,8.435 7.933,7.951 17.603,19.788 5.685,6.667 2.381,2.462 4.347,6.532 0.162,0.295 4.023,2.657 7.677,5.343 l -91.568,2.248 z"
             style="fill:#b2b71c;fill-opacity:1;fill-rule:nonzero;stroke:none"
             id="path43777" />
        </g>
        <g
           id="g43779"
           transform="translate(388.084,135.7529)">
          <path
             d="m 0,0 c -0.264,3.186 -0.527,6.38 -0.785,9.565 -0.234,2.789 0.043,6.011 -0.603,8.621 2.714,0.583 3.771,0.038 4.52,1.043 0.11,1.142 0.086,2.297 0.049,3.438 C 3.2,23.4 2.792,24.126 2.873,24.828 l -39.534,37.651 -1.053,-15.591 c 0.025,-0.059 0.054,-0.118 0.078,-0.177 3.144,-7.38 2.984,-15.54 1.83,-23.338 -0.724,-4.893 -0.663,-9.682 -0.835,-14.631 -0.123,-3.161 -0.184,-6.323 -0.178,-9.491 0.006,-3.622 -0.203,-7.269 0.252,-10.873 0.207,-1.657 0.56,-3.316 0.986,-4.966 l 36.746,2.529 C 0.812,-9.373 0.431,-4.688 0,0"
             style="fill:#079b4d;fill-opacity:1;fill-rule:nonzero;stroke:none"
             id="path43781" />
        </g>
        <g
           id="g43783"
           transform="translate(390.957,160.5811)">
          <path
             d="m 0,0 c 0.025,0.209 0.092,0.416 0.228,0.62 -0.055,2.862 0.436,5.643 0.657,8.48 0.173,2.295 1.105,4.156 1.781,6.36 1.535,4.973 2.081,10.241 1.596,15.411 -0.197,2.118 -1.24,3.936 -2.137,5.857 -0.558,1.192 -1.089,2.391 -1.612,3.593 l -40.047,-2.67 z"
             style="fill:#11964a;fill-opacity:1;fill-rule:nonzero;stroke:none"
             id="path43785" />
        </g>
        <g
           id="g43787"
           transform="translate(370.0352,266.0039)">
          <path
             d="M 0,0 C 0.816,-0.977 2.069,-1.469 3.277,-1.92 4.333,-1.969 5.401,-1.98 6.47,-1.98 6.985,-1.465 7.514,-0.95 8.042,-0.452 8.515,1.666 7.649,3.686 7.538,5.773 5.822,20.212 7.067,24.414 7.989,26.857 L 7.557,27.51 Z"
             style="fill:#47b53a;fill-opacity:1;fill-rule:nonzero;stroke:none"
             id="path43789" />
        </g>
        <g
           id="g43791"
           transform="translate(391.4697,200.9023)">
          <path
             d="m 0,0 c -2.473,5.687 -4.623,11.476 -6.965,17.232 -2.198,5.41 -4.475,10.665 -7.152,15.848 -2.806,5.451 -5.679,10.959 -8.497,16.349 -0.696,1.325 -1.366,2.661 -2.026,4.001 l -15.407,-56.1 z"
             style="fill:#47b53a;fill-opacity:1;fill-rule:nonzero;stroke:none"
             id="path43793" />
        </g>
        <g
           id="g43795"
           transform="translate(318.8799,424.3569)">
          <path
             d="m 0,0 91.568,-2.248 c 2.814,2.068 5.506,4.33 6.296,5.991 -0.011,0.454 -0.011,0.915 -0.017,1.362 -0.498,0.823 -1.008,1.659 -1.259,2.592 -0.06,0.279 -0.081,0.559 -0.088,0.838 L 75.582,26.769 C 75.564,26.542 75.543,26.249 75.529,26.079 71.918,19.706 67.707,11.135 70.531,4.172 69.524,2.976 68.922,1.52 68.137,0.194 67.946,0.379 67.56,0.747 67.375,0.931 c 0.1,2.057 -2.038,25.049 -2.131,25.504 0,0 0.22,3.741 0.326,9.061 L 33.549,63.408 Z"
             style="fill:#c36e1f;fill-opacity:1;fill-rule:nonzero;stroke:none"
             id="path43797" />
        </g>
        <g
           id="g43799"
           transform="translate(318.8799,424.3569)">
          <path
             d="m 0,0 -38.76,-18.647 c -0.554,-23.638 -0.984,-20.616 -0.326,-20.686 0.54,-0.276 0.343,-1.013 0.49,-1.511 -0.368,-0.478 1.787,-1.707 2.653,-3.136 0.356,-2.359 -1.916,-2.844 1.069,-4.624 -1.56,-3.236 -4.065,1.068 -4.189,-8.128 0.798,-0.677 0.074,-1.333 -0.398,-1.879 -0.111,-0.418 -0.215,-0.836 -0.313,-1.265 0.11,-0.639 0.264,-1.29 0.189,-1.947 -1.055,-0.731 -2.16,-1.462 -2.731,-2.671 0.024,-1.067 0.024,-2.136 0.012,-3.216 -1.934,-1.707 -2.382,-4.421 -4.052,-6.356 -0.491,-2.928 -1.229,-4.427 -1.13,-6.378 -1.08,-3.905 -4.881,-4.998 -5.354,-10.081 -4.948,-4.777 -8.411,-14.681 -4.617,-28.875 -0.798,-3.58 -0.055,-7.67 0.221,-16.767 0.142,-2.929 -1.983,-1.991 -0.197,-6.847 -0.478,-0.374 -0.969,-0.736 -1.478,-1.068 0,0 -0.75,-0.727 -2.581,-2.107 l 2.109,-5.791 z"
             style="fill:#d3e10e;fill-opacity:1;fill-rule:nonzero;stroke:none"
             id="path43801" />
        </g>
        <g
           id="g43803"
           transform="translate(351.4229,198.2324)">
          <path
             d="m 0,0 15.407,56.1 c -1.761,3.581 -3.443,7.194 -5.305,10.728 -1.645,3.101 -3.144,6.392 -5.195,9.24 -0.128,0.626 -0.245,1.253 -0.498,1.837 -0.023,0.435 -0.03,0.853 -0.036,1.283 1.417,2.485 2.65,7.599 3.648,12.845 L -91.926,74.145 Z"
             style="fill:#8acf25;fill-opacity:1;fill-rule:nonzero;stroke:none"
             id="path43805" />
        </g>
        <g
           id="g43807"
           transform="translate(365.9658,291.4326)">
          <path
             d="m 0,0 c 0.253,-1.256 0.358,-2.813 0.2,-5.27 -0.227,-0.331 -1.247,-10.192 -1.247,-10.56 0.83,-1.744 2.44,-2.935 4.017,-3.966 -0.043,-1.584 0.514,-3.107 0.527,-4.691 0.149,-0.359 0.345,-0.669 0.572,-0.942 l 7.557,27.51 z"
             style="fill:#8acf25;fill-opacity:1;fill-rule:nonzero;stroke:none"
             id="path43809" />
        </g>
        <g
           id="g43811"
           transform="translate(318.8799,424.3569)">
          <path
             d="m 0,0 -59.383,-151.98 99.947,17.889 c 1.392,7.309 2.326,14.877 2.658,15.949 0.368,-0.491 0.994,-0.92 0.921,-1.633 0.737,-8.748 2.308,-10.005 2.943,-13.149 l 11.626,2.081 z"
             style="fill:#aeda19;fill-opacity:1;fill-rule:nonzero;stroke:none"
             id="path43813" />
        </g>
        <g
           id="g43815"
           transform="translate(313.248,594.8711)">
          <path
             d="M 0,0 C -0.227,0.031 -0.669,0.092 -0.89,0.117 -1.382,0.516 -1.872,0.523 -2.363,0.123 -2.585,0.092 -3.026,0.031 -3.248,0 -5.49,-1.559 -6.04,-4.787 -6.681,-8.046 l 7.107,7.618 C 0.284,-0.285 0.138,-0.146 0,0"
             style="fill:#e31d25;fill-opacity:1;fill-rule:nonzero;stroke:none"
             id="path43817" />
        </g>
        <g
           id="g43819"
           transform="translate(345.999,190.0254)">
          <path
             d="M 0,0 C 1.669,-2.332 3.22,-4.729 4.371,-7.385 L 5.424,8.207 Z"
             style="fill:#17a549;fill-opacity:1;fill-rule:nonzero;stroke:none"
             id="path43821" />
        </g>
        <g
           id="g43823"
           transform="translate(337.8604,200.9951)">
          <path
             d="M 0,0 C 1.75,-2.29 3.465,-4.602 5.165,-6.922 6.157,-8.273 7.167,-9.61 8.139,-10.97 l 5.424,8.207 z"
             style="fill:#51be37;fill-opacity:1;fill-rule:nonzero;stroke:none"
             id="path43825" />
        </g>
        <g
           id="g43827"
           transform="translate(284.5146,209.9326)">
          <path
             d="m 0,0 c -1.001,-3.586 -2.285,-7.049 -3.218,-10.615 -0.736,-2.819 -1.565,-5.625 -2.701,-8.307 -2.229,-5.274 -5.882,-10.358 -11.837,-11.513 -17.147,-3.325 -26.594,-7.198 -32.678,-11.191 l 17.1,-34.93 c 1.719,0.772 3.433,1.556 5.134,2.364 5.022,2.382 9.701,5.262 15.079,6.84 1.983,0.577 4.028,1.043 5.888,1.959 0.854,0.417 1.604,1.184 2.475,1.516 0.736,0.282 1.688,0.276 2.468,0.423 3.008,0.571 5.998,1.253 8.964,2.045 1.535,0.418 2.959,1.037 4.542,1.283 1.978,0.313 3.998,0.375 5.944,0.927 2.554,0.731 4.728,2.241 6.521,4.181 3.229,3.505 4.752,7.786 6.924,11.929 2.476,4.709 5.153,9.412 7.24,14.312 2.161,5.071 4.457,10.009 7.017,14.901 0.187,0.358 1.841,3.468 3.146,6.025 L 0.501,1.825 C 0.333,1.216 0.171,0.607 0,0"
             style="fill:#51be37;fill-opacity:1;fill-rule:nonzero;stroke:none"
             id="path43829" />
        </g>
        <g
           id="g43831"
           transform="translate(254.1538,217.4844)">
          <path
             d="m 0,0 c 0.208,-0.368 0.098,-1.455 0.823,-1.105 3.165,0.924 2.088,-0.24 3.737,0.736 L 0.841,0.387 C 0.579,0.266 0.303,0.139 0,0"
             style="fill:#51be37;fill-opacity:1;fill-rule:nonzero;stroke:none"
             id="path43833" />
        </g>
        <g
           id="g43835"
           transform="translate(332.1279,588.2407)">
          <path
             d="m 0,0 c -0.706,-0.466 -1.498,-0.767 -2.26,-1.111 -0.147,0.184 -0.435,0.553 -0.577,0.73 0.411,0.393 0.822,0.787 1.24,1.186 C -1.007,0.633 0.135,0.964 0,0 m -17.695,-42.289 c -0.43,0.711 0.761,1.061 1.13,0.514 0.036,-0.251 0.111,-0.754 0.153,-1.006 -0.522,-0.147 -0.944,0.019 -1.283,0.492 m -11.763,14.764 c 1.375,0.689 0.05,-1.521 0,0 m -0.688,-6.605 c -0.774,-0.24 -1.019,0 -0.724,0.725 0.773,0.233 1.013,-0.007 0.724,-0.725 M 9.874,6.478 C 9.202,6.229 8.542,5.953 7.895,5.643 5.262,4.378 2.946,2.413 0.043,1.781 -0.798,2.032 -1.67,2.113 -2.542,2.161 -3.672,1.59 -4.286,0.509 -4.69,-0.644 c -1.113,-0.049 -3.323,0.81 -3.194,-1.031 0.308,0.036 0.908,0.116 1.21,0.153 -0.436,-0.301 -0.872,-0.608 -1.302,-0.903 -0.276,-0.012 -0.829,-0.012 -1.098,-0.018 0.036,1.025 -0.246,2.031 -1.241,2.51 0.098,-0.675 0.203,-1.338 0.307,-2.013 -0.16,-0.233 -0.472,-0.712 -0.626,-0.946 h -2.941 c -0.105,0.786 -0.238,1.578 -0.571,2.303 0.307,0.43 0.626,0.865 0.946,1.295 0.393,0.061 1.166,0.184 1.559,0.245 -0.528,0.394 -1.074,0.756 -1.585,1.155 0.53,0.872 1.057,1.756 1.462,2.696 -0.602,1.056 -1.234,2.112 -2.161,2.915 -1.597,-0.251 -1.939,-2.013 -2.898,-3.057 -0.57,0.494 -1.111,1.01 -1.631,1.542 l -7.107,-7.617 c -0.211,-1.078 -0.433,-2.158 -0.729,-3.184 0.11,-1.055 0.295,-2.437 -1.118,-2.652 0.159,-0.484 0.319,-0.97 0.468,-1.461 -0.603,-1.313 -0.959,-6.931 0.945,-10.394 -0.038,-0.645 -0.081,-1.29 -0.123,-1.934 0.435,-0.062 0.872,-0.124 1.302,-0.185 -0.43,-0.675 -1.352,-0.841 -2.15,-0.773 -0.792,0.073 -1.59,0.319 -2.381,0.203 -0.794,-0.118 -1.597,-0.768 -1.499,-1.567 0.331,-0.22 0.669,-0.447 1.007,-0.675 -0.908,-0.497 -1.94,-0.773 -2.971,-0.792 v -0.62 c 0.595,0.062 1.191,0.123 1.786,0.185 -0.473,-0.412 -0.952,-0.817 -1.43,-1.229 0.662,0.301 1.492,-0.135 1.756,-0.803 0.269,-0.67 0.049,-1.462 -0.411,-2.021 -0.461,-0.553 -1.118,-0.902 -1.788,-1.16 0.448,-0.865 1.216,-1.565 2.13,-1.934 -0.687,0.092 -1.135,-0.773 -1.049,-1.461 0.086,-0.688 0.461,-1.327 0.485,-2.02 0.068,-1.824 -2.032,-2.444 -1.921,-4.323 1.197,0.283 2.474,0.473 3.352,1.412 -0.301,0.136 -0.909,0.412 -1.209,0.547 1.798,-0.332 2.412,0.332 6.182,-1.001 -1.13,-1.571 -1.745,-3.444 -1.485,-5.391 0.257,0.007 0.778,0.02 1.042,0.025 0.51,0.264 1.039,0.325 1.584,0.179 2.911,-0.848 6.183,0.417 8.866,-1.315 l -0.663,-0.798 c 1.062,0.313 2.21,0.755 3.327,0.381 -0.036,-0.737 -0.717,-1.154 -1.117,-1.701 0.608,-0.025 1.216,-0.049 1.83,-0.067 2.597,-3.033 4.924,-7.828 6.042,-8.479 -0.332,-0.706 -0.664,-1.412 -0.995,-2.119 0.627,0.184 1.24,0.393 1.861,0.608 0.085,-0.92 0.226,-1.835 0.41,-2.745 -0.465,-0.994 -0.11,-2.258 -0.711,-3.155 -1.486,-0.209 -3.082,0.289 -4.47,-0.406 -0.234,-0.03 -0.7,-0.079 -0.934,-0.11 -2.075,-2.186 -2.578,-5.293 -3.733,-7.969 -0.042,-0.522 -0.073,-1.044 -0.111,-1.559 -1.461,0.958 -2.798,-0.259 -3.788,-1.289 -1.97,0.036 -3.125,-1.892 -5.015,-2.039 -1.719,-0.626 -6.471,-3.156 -10.708,-3.07 -10.603,0.503 -30.243,-12.697 -35.634,-19.855 -1.269,-1.269 -2.411,-2.64 -3.516,-4.045 l 93.146,3.7 z"
             style="fill:#df1e25;fill-opacity:1;fill-rule:nonzero;stroke:none"
             id="path43837" />
        </g>
        <g
           id="g43839"
           transform="translate(271.8237,451.6704)">
          <path
             d="M 0,0 C 1.608,0.742 3.149,1.878 5.022,1.75 6.041,-0.314 7.589,-2.026 9.381,-3.445 9.161,-4.764 8.51,-6.183 9.762,-7.227 9.691,-7.322 9.585,-7.47 9.483,-7.612 l 37.573,-19.702 33.549,63.408 -93.146,-3.699 c -0.777,-0.989 -1.536,-1.993 -2.304,-2.993 -3.512,-4.574 -7.461,-8.712 -11.819,-12.494 -1.344,-1.166 -2.715,-2.3 -4.107,-3.411 L -2.41,-1.374 C -1.345,-0.721 -0.502,-0.237 0,0"
             style="fill:#de641c;fill-opacity:1;fill-rule:nonzero;stroke:none"
             id="path43841" />
        </g>
        <g
           id="g43843"
           transform="translate(259.4966,272.377)">
          <path
             d="m 0,0 -12.945,-10.483 c 0.859,-1.062 1.697,-2.137 2.457,-3.274 -0.337,-0.018 -1.013,-0.049 -1.351,-0.061 -0.638,-0.381 -5.261,-4.101 -5.586,-5.023 0.172,-0.834 0.994,-1.166 1.67,-1.522 0.546,-1.118 1.185,-2.18 1.866,-3.224 0,-0.257 0.012,-0.768 0.019,-1.025 0.521,-0.301 1.049,-0.601 1.583,-0.909 1.714,0.068 1.749,-2.154 3.175,-2.701 2.873,-1.368 6.275,0.123 9.173,-1.001 1.265,-0.08 2.528,-0.067 3.794,-0.024 0.159,-0.424 0.288,-0.866 0.38,-1.32 0.387,-5.944 1.253,-11.886 2.898,-17.622 0.283,-0.368 0.564,-0.749 0.847,-1.129 -0.147,-0.246 -0.46,-0.737 -0.614,-0.982 -1.166,0.184 -2.314,0.49 -3.431,0.865 -0.547,-0.141 -1.1,-0.288 -1.64,-0.423 -5.162,-3.373 -0.692,-1.817 -6.796,-4.648 l 3.718,-0.756 c 0.519,0.307 1.307,0.823 2.587,1.69 0.988,0.276 2.07,0.091 3.02,0.557 0.167,-0.355 0.326,-0.711 0.467,-1.079 -0.258,-0.093 -0.78,-0.283 -1.044,-0.375 0.129,-0.215 0.381,-0.644 0.511,-0.866 0.226,0.124 0.674,0.356 0.902,0.467 0.196,-0.099 0.589,-0.314 0.786,-0.424 0.318,-0.909 1.16,-2.358 2.265,-1.418 0.202,0.061 0.608,0.184 0.81,0.232 1.492,0.947 3.088,-0.256 4.648,-0.11 0.675,0.59 0.559,1.677 1.271,2.224 3.85,0.355 7.705,-0.203 11.487,-0.921 -0.447,-1.783 -0.922,-3.561 -1.408,-5.334 l 47.507,-9.676 c 0.934,1.832 1.689,3.381 1.594,3.43 1.314,-0.681 2.463,-2.836 3.328,-3.967 0.139,-0.182 0.276,-0.367 0.416,-0.55 l 13.562,-2.763 z"
             style="fill:#8ed12a;fill-opacity:1;fill-rule:nonzero;stroke:none"
             id="path43845" />
        </g>
        <g
           id="g43847"
           transform="translate(281.3066,444.0586)">
          <path
             d="m 0,0 c -0.075,-0.104 -0.147,-0.205 -0.2,-0.278 -0.025,-1.351 -0.165,-2.843 0.897,-3.892 0.042,-1.831 -0.012,-3.672 0.129,-5.501 -0.964,-1.904 -1.093,-4.047 -1.026,-6.134 -6.465,0.7 -24.963,4.647 -30.139,8.835 1.466,1.909 12.941,9.83 18.447,13.207 l -28.362,14.872 c -2.453,-1.958 -4.971,-3.84 -7.522,-5.67 -1.081,-0.772 -2.26,-1.462 -3.321,-2.229 -1.112,-0.803 -2.088,-1.983 -3.033,-2.977 -1.916,-2.027 -3.709,-4.187 -5.348,-6.459 -1.277,-1.762 -2.462,-3.591 -3.555,-5.483 -0.527,-0.915 -0.958,-1.94 -1.547,-2.812 -0.332,-0.473 -0.891,-1.657 -1.345,-1.958 -0.466,-0.311 -0.836,-0.706 -1.132,-1.156 l 1.792,-15.116 c 0.147,-0.121 0.3,-0.236 0.463,-0.342 0.78,-0.51 1.702,-0.749 2.604,-0.976 7.827,-1.996 15.528,-4.402 23.527,-5.618 11.519,-1.756 23.22,-3.611 34.837,-4.236 0.933,-0.05 2.579,0.368 2.725,-0.971 -0.026,-1.212 -0.052,-2.361 -0.077,-3.455 l 38.759,18.647 z"
             style="fill:#e89313;fill-opacity:1;fill-rule:nonzero;stroke:none"
             id="path43849" />
        </g>
        <g
           id="g43851"
           transform="translate(257.3877,278.168)">
          <path
             d="M 0,0 C -1.195,-0.902 -2.85,-2.08 -5.06,-3.519 L 2.109,-5.791 Z"
             style="fill:#dce70b;fill-opacity:1;fill-rule:nonzero;stroke:none"
             id="path43853" />
        </g>
        <g
           id="g43855"
           transform="translate(219.3237,154.251)">
          <path
             d="m 0,0 c -4.611,-3.431 -29.956,-22.765 -32.552,-23.999 -0.829,0.625 -1.874,0.405 -2.831,0.442 -0.817,-0.521 -1.584,-1.124 -2.265,-1.824 -0.222,0.007 -0.664,0.007 -0.891,0.013 -0.577,0.46 -1.191,0.877 -1.817,1.264 -0.642,0.111 -1.287,0.203 -1.882,0.479 -12.882,0.73 -12.583,1.579 -16.221,0.577 -0.365,0.252 -0.716,0.523 -1.047,0.799 -0.755,0.03 -1.508,0.043 -2.262,0.043 -0.452,-0.302 -0.903,-0.602 -1.352,-0.908 -0.23,0.011 -0.675,0.011 -0.902,0.017 -0.46,0.295 -0.923,0.583 -1.378,0.872 -2.026,0.092 -4.414,0.436 -5.979,-1.173 -1.112,-1.289 -2.586,-2.622 -2.491,-4.481 0.323,-0.449 0.636,-0.902 0.946,-1.375 0.006,-0.233 0.015,-0.719 0.015,-0.958 -0.608,-0.56 -1.213,-1.124 -1.818,-1.695 0.032,-6.901 -0.958,-3.929 0.904,-17.179 0.014,-0.188 0.031,-0.372 0.052,-0.552 l 48.688,-7.907 c 0.007,0.331 0.003,0.661 -0.022,0.993 -0.627,0.921 -1.449,1.652 -2.382,2.222 4.991,6.656 21.046,17.585 28.966,21.084 1.105,0.369 2.174,0.81 3.205,1.357 1.738,0.516 3.266,1.554 5.01,2.069 4.537,1.867 9.173,3.495 13.729,5.336 2.834,1.147 5.643,2.357 8.433,3.61 l -17.1,34.93 C 7.507,9.3 5.03,4.374 0,0"
             style="fill:#65c430;fill-opacity:1;fill-rule:nonzero;stroke:none"
             id="path43857" />
        </g>
        <g
           id="g43859"
           transform="translate(185.5249,84.3447)">
          <path
             d="M 0,0 C 0.159,-0.779 -0.565,-1.884 -1.357,-1.971 -1.247,-1.245 -0.712,-0.202 0,0 M 1.449,2.463 C 1.56,1.849 1.295,1.523 0.663,1.48 0.553,2.119 0.823,2.444 1.449,2.463 M 5.219,5.22 C 6.238,5.373 7.269,5.41 8.3,5.422 8.699,5.104 9.098,4.796 9.504,4.471 7.631,4.544 5.734,3.795 3.942,4.673 4.371,4.857 4.789,5.048 5.219,5.22 m -40.725,5.863 c 0.03,-0.214 0.095,-0.657 0.123,-0.872 1.17,-2.395 0.246,-5.022 -0.169,-7.472 -0.558,-0.547 -1.124,-1.098 -1.688,-1.652 0,0 -0.784,-7.975 -0.823,-8.08 0.3,-1.264 -0.225,-2.541 0.027,-3.824 0.712,-0.682 1.265,-1.505 1.735,-2.382 -0.239,-0.165 -0.706,-0.497 -0.939,-0.663 -0.133,-0.603 -0.268,-1.21 -0.39,-1.83 2.041,-5.053 0.006,-7.117 3.561,-8.798 -1.072,-6.336 4.479,-11.408 5.225,-13.606 3.06,-2.161 5.78,-5.759 9.915,-5.501 2.094,0.129 4.062,0.995 5.956,1.904 1.286,0.613 2.602,1.277 3.514,2.37 1.066,1.282 1.452,3.02 1.397,4.69 -0.112,3.34 -2.066,6.311 -2.981,9.455 -0.611,2.088 -0.749,4.469 0.366,6.348 0.362,0.615 0.85,1.155 1.185,1.787 0.616,1.167 -0.209,2.443 0.516,3.531 2.775,4.174 1.685,5.169 3.279,7.268 0.564,0.413 1.049,0.915 1.485,1.443 0.208,0.087 0.627,0.253 0.829,0.332 0.35,0.387 0.699,0.774 1.056,1.149 0.031,-0.332 0.079,-0.995 0.104,-1.327 0.675,0.018 1.351,0.025 2.021,0.025 0.926,1.681 2.252,3.101 3.29,4.703 0.51,0.86 0.921,2.922 2.235,1.713 2.075,-0.228 4.475,-0.16 6.01,1.467 0.111,0.885 0.081,1.767 0.111,2.64 C 10.339,6.987 8.547,8.123 7.036,7.264 6.447,7.246 5.869,7.221 5.28,7.202 c 0.779,0.504 1.572,0.983 2.383,1.444 0.725,1.127 1.023,2.408 1.053,3.715 l -48.689,7.908 c 0.626,-5.912 3.349,-7.411 4.467,-9.186"
             style="fill:#369d3f;fill-opacity:1;fill-rule:nonzero;stroke:none"
             id="path43861" />
        </g>
        <g
           id="g43863"
           transform="translate(213.2637,429.6172)">
          <path
             d="M 0,0 C 0.208,-2.789 0.471,-6.407 2.778,-8.31 L 0.986,6.807 C -0.251,4.925 -0.158,2.045 0,0"
             style="fill:#f59b0f;fill-opacity:1;fill-rule:nonzero;stroke:none"
             id="path43865" />
        </g>
        <g
           id="g43867"
           transform="translate(252.3281,274.6494)">
          <path
             d="m 0,0 c -1.574,-1.022 -3.428,-2.178 -5.597,-3.455 -1.517,-1.246 -3.825,-1.474 -4.869,-3.218 1.398,-2.154 3.081,-4.091 4.69,-6.082 L 7.168,-2.272 Z"
             style="fill:#c2e013;fill-opacity:1;fill-rule:nonzero;stroke:none"
             id="path43869" />
        </g>
      </g>
    </g>
  </g>
</svg>
